<svg width="98" height="160" viewBox="0 0 98 160" fill="none" xmlns="http://www.w3.org/2000/svg">
<path d="M24.3007 27.4863C38.4676 27.4863 45.7796 34.4784 49.178 39.3184C49.3899 36.6388 50.1003 16.4312 22.8134 16.4312C4.3548 16.4312 0.977171 0 0.977171 0L0.856689 5.189C0.856689 13.6642 4.92397 27.4863 24.3007 27.4863ZM49.1489 51.3001C49.1489 41.3749 43.9516 29.9541 24.3007 29.9541C4.64977 29.9541 1.36354 15.9617 0.977171 13.0161V19.1482C0.977171 19.1482 -0.460295 40.4983 23.6567 40.4983C41.1639 40.4983 46.9429 50.3155 49.0409 54.0172C48.7418 56.1941 48.9163 57.1081 48.9661 57.7562C52.3604 52.9204 59.6723 45.9241 73.8393 45.9241C93.216 45.9241 97.2833 32.102 97.2833 23.6268L97.1628 18.4378C97.1628 18.4378 93.7851 34.8689 75.3266 34.8689C52.5099 34.8689 49.1448 51.3001 49.1448 51.3001H49.1489ZM48.991 87.1495V89.3223C52.0737 84.6859 59.3815 77.1205 74.4832 77.1205C93.8558 77.1205 97.1628 61.7155 97.1628 55.6V47.8311C97.1628 47.8311 95.2974 66.0819 74.4832 66.0819C53.669 66.0819 49.9216 78.0719 49.1448 83.963V80.8803C49.2237 72.833 43.3035 61.1505 23.6526 61.1505C7.12587 61.1505 1.6959 49.8668 0.948089 45.5378C0.698817 48.554 -0.481069 72.0021 22.8134 72.0021C40.4701 72.0021 47.458 81.9605 48.8706 84.3286L49.07 84.6859C48.9246 86.1898 48.9952 87.1495 48.9952 87.1495H48.991ZM74.4832 79.5883C54.8323 79.5883 48.9121 91.2708 48.991 99.3181C48.991 99.3181 48.4593 108.711 54.3171 114.569C54.3171 114.569 46.8847 102.559 55.7048 96.0693C59.8302 93.1445 66.1285 90.4399 75.3307 90.4399C98.621 90.4399 97.4453 66.9917 97.196 63.9756C96.444 68.3046 91.0141 79.5841 74.4874 79.5841L74.4832 79.5883ZM74.4832 58.9361C98.5961 58.9361 97.1628 37.586 97.1628 37.586V31.4539C96.7722 34.3995 93.6439 48.3919 73.8393 48.3919C55.6009 48.3919 49.7472 58.6827 49.0658 66.1318C48.4883 60.5065 44.8573 47.6441 23.6526 47.6441C2.44787 47.6441 0.977171 29.3891 0.977171 29.3891V37.1581C0.977171 43.2777 4.28002 58.6785 23.6567 58.6785C40.0754 58.6785 47.7571 66.6594 48.9952 71.703C51.0808 68.0179 57.8942 58.932 74.4915 58.932L74.4832 58.9361Z" fill="#006F3D"/>
<path d="M66.7766 105.308C66.7766 108.839 63.9141 111.702 60.3827 111.702C56.8514 111.702 53.9889 108.839 53.9889 105.308C53.9889 101.777 56.8514 98.9141 60.3827 98.9141C63.9141 98.9141 66.7766 101.777 66.7766 105.308Z" fill="#EB2225"/>
<path d="M46.8597 95.1438C46.8597 98.6752 43.9973 101.538 40.4659 101.538C36.9346 101.538 34.0721 98.6752 34.0721 95.1438C34.0721 91.6125 36.9346 88.75 40.4659 88.75C43.9973 88.75 46.8597 91.6125 46.8597 95.1438Z" fill="#EB2225"/>
<path d="M46.8597 114.57C46.8597 118.101 43.9973 120.963 40.4659 120.963C36.9346 120.963 34.0721 118.101 34.0721 114.57C34.0721 111.038 36.9346 108.176 40.4659 108.176C43.9973 108.176 46.8597 111.038 46.8597 114.57Z" fill="#EB2225"/>
<path d="M9.76818 138.13L13.1417 139.152C12.9132 140.1 12.5559 140.889 12.0698 141.525C11.5837 142.16 10.9771 142.638 10.2543 142.962C9.53137 143.286 8.61322 143.448 7.49565 143.448C6.14127 143.448 5.03201 143.253 4.17203 142.858C3.31204 142.464 2.57253 141.774 1.94936 140.781C1.32618 139.792 1.01459 138.521 1.01459 136.975C1.01459 134.915 1.56298 133.328 2.65978 132.218C3.75657 131.109 5.31037 130.557 7.317 130.557C8.88741 130.557 10.1213 130.872 11.0187 131.508C11.9161 132.144 12.5849 133.116 13.0212 134.433L9.61861 135.189C9.49813 134.811 9.3735 134.533 9.2447 134.358C9.02867 134.063 8.76693 133.839 8.45534 133.677C8.14376 133.519 7.79477 133.44 7.4084 133.44C6.53595 133.44 5.86707 133.793 5.40177 134.495C5.04863 135.014 4.87414 135.833 4.87414 136.95C4.87414 138.334 5.08187 139.281 5.50563 139.792C5.92524 140.303 6.51518 140.561 7.27546 140.561C8.03574 140.561 8.57167 140.353 8.94558 139.938C9.32364 139.526 9.59784 138.924 9.76818 138.134V138.13Z" fill="black"/>
<path d="M22.6804 141.175H18.3057L17.6992 143.235H13.7648L18.4511 130.768H22.6514L27.3377 143.235H23.3036L22.6804 141.175ZM21.8828 138.478L20.5076 133.996L19.1449 138.478H21.8828Z" fill="black"/>
<path d="M28.5799 130.764H38.1062V133.443H32.4519V135.62H37.2836V138.138H32.4519V143.231H28.584V130.764H28.5799Z" fill="black"/>
<path d="M40.171 130.764H50.495V133.427H44.0305V135.408H50.0255V137.951H44.0305V140.41H50.6819V143.231H40.171V130.764ZM45.1024 127.465H48.0812L45.3351 130.007H43.6774L45.1066 127.465H45.1024Z" fill="black"/>
<path d="M52.082 139.111L55.7463 138.882C55.8253 139.476 55.9873 139.933 56.2324 140.245C56.6312 140.747 57.1963 141.001 57.9316 141.001C58.48 141.001 58.9038 140.872 59.2029 140.614C59.502 140.357 59.6516 140.058 59.6516 139.717C59.6516 139.376 59.5103 139.106 59.2237 138.849C58.9412 138.595 58.2847 138.354 57.2503 138.126C55.5594 137.744 54.3546 137.241 53.6358 136.614C52.9088 135.982 52.5473 135.18 52.5473 134.208C52.5473 133.568 52.7343 132.962 53.1041 132.393C53.4738 131.824 54.0347 131.375 54.7783 131.051C55.522 130.727 56.544 130.561 57.8444 130.561C59.4356 130.561 60.6528 130.856 61.4879 131.45C62.3229 132.044 62.8215 132.987 62.9794 134.279L59.3483 134.491C59.2527 133.93 59.0492 133.523 58.7417 133.265C58.4343 133.012 58.0064 132.883 57.4622 132.883C57.0135 132.883 56.6769 132.978 56.4484 133.165C56.2241 133.357 56.1078 133.585 56.1078 133.859C56.1078 134.059 56.1992 134.237 56.3861 134.395C56.5689 134.561 56.9968 134.711 57.6782 134.852C59.3608 135.214 60.5697 135.583 61.2968 135.953C62.0238 136.323 62.5556 136.784 62.888 137.337C63.2203 137.885 63.3865 138.5 63.3865 139.181C63.3865 139.979 63.1663 140.718 62.7218 141.391C62.2814 142.064 61.6624 142.58 60.8689 142.924C60.0753 143.273 59.0741 143.448 57.8651 143.448C55.7463 143.448 54.2756 143.041 53.4613 142.222C52.6429 141.408 52.1817 140.369 52.0737 139.111H52.082Z" fill="#ED1C24"/>
<path d="M71.1928 130.764H76.9178C78.0437 130.764 78.9577 130.918 79.6515 131.221C80.3453 131.524 80.9227 131.965 81.3756 132.538C81.8284 133.111 82.1566 133.776 82.3602 134.536C82.5638 135.297 82.6676 136.103 82.6676 136.95C82.6676 138.284 82.5139 139.314 82.2106 140.05C81.9074 140.785 81.4878 141.4 80.9477 141.894C80.4076 142.389 79.8301 142.721 79.2152 142.883C78.3719 143.107 77.6033 143.224 76.9178 143.224H71.1928V130.756V130.764ZM75.0441 133.585V140.399H75.9872C76.7931 140.399 77.3665 140.311 77.7071 140.133C78.0478 139.954 78.3137 139.642 78.5048 139.198C78.6959 138.753 78.7956 138.03 78.7956 137.033C78.7956 135.712 78.5796 134.807 78.1475 134.32C77.7154 133.834 77.0009 133.589 76.0038 133.589H75.0441V133.585Z" fill="black"/>
<path d="M84.2048 137.009C84.2048 134.973 84.7699 133.39 85.904 132.256C87.0382 131.122 88.6169 130.557 90.6402 130.557C92.6635 130.557 94.317 131.113 95.4387 132.227C96.5604 133.34 97.1213 134.902 97.1213 136.909C97.1213 138.367 96.8761 139.56 96.3859 140.494C95.8957 141.425 95.1853 142.152 94.2588 142.671C93.3323 143.191 92.1774 143.448 90.7939 143.448C89.4105 143.448 88.2223 143.224 87.3041 142.775C86.3818 142.326 85.634 141.62 85.0648 140.648C84.4915 139.68 84.2048 138.467 84.2048 137.009ZM88.0561 137.025C88.0561 138.284 88.2929 139.19 88.7582 139.738C89.2235 140.287 89.8633 140.565 90.6693 140.565C91.4753 140.565 92.1358 140.295 92.5887 139.755C93.0415 139.215 93.27 138.251 93.27 136.855C93.27 135.679 93.0332 134.823 92.5596 134.283C92.086 133.743 91.4462 133.469 90.636 133.469C89.8259 133.469 89.236 133.743 88.7665 134.296C88.297 134.844 88.0602 135.754 88.0602 137.025H88.0561Z" fill="black"/>
<path d="M15.6219 147.315H22.4229C23.557 147.315 24.4253 147.614 25.0319 148.208C25.6385 148.802 25.9417 149.542 25.9417 150.418C25.9417 151.153 25.7257 151.785 25.2936 152.317C25.0028 152.67 24.5832 152.944 24.0265 153.148C24.8699 153.364 25.4931 153.733 25.8919 154.257C26.2907 154.78 26.4901 155.441 26.4901 156.234C26.4901 156.878 26.3489 157.464 26.0664 157.975C25.7797 158.49 25.3933 158.898 24.9031 159.201C24.5998 159.388 24.1387 159.525 23.5238 159.608C22.7054 159.72 22.1653 159.778 21.8952 159.778H15.6219V147.311V147.315ZM19.2862 152.205H20.8649C21.4299 152.205 21.8246 152.101 22.049 151.893C22.2733 151.685 22.3813 151.386 22.3813 150.996C22.3813 150.634 22.2691 150.348 22.049 150.144C21.8288 149.94 21.4424 149.837 20.8898 149.837H19.2862V152.2V152.205ZM19.2862 157.103H21.1391C21.7623 157.103 22.2068 156.986 22.4644 156.75C22.722 156.513 22.8508 156.197 22.8508 155.802C22.8508 155.433 22.722 155.138 22.4727 154.913C22.2193 154.689 21.7706 154.577 21.135 154.577H19.2903V157.103H19.2862Z" fill="black"/>
<path d="M28.4345 159.782V147.314H34.4876C35.6093 147.314 36.4693 147.418 37.0634 147.622C37.6575 147.825 38.1353 148.204 38.4967 148.756C38.8623 149.309 39.041 149.982 39.041 150.775C39.041 151.469 38.9039 152.063 38.6255 152.566C38.3472 153.068 37.9649 153.476 37.4789 153.787C37.1673 153.987 36.7435 154.149 36.2034 154.282C36.6355 154.435 36.9512 154.589 37.1465 154.743C37.2795 154.847 37.4747 155.063 37.7281 155.399C37.9816 155.732 38.1519 155.989 38.235 156.172L39.9965 159.786H35.8918L33.9475 155.977C33.7024 155.482 33.4822 155.162 33.2911 155.017C33.0294 154.826 32.7344 154.726 32.402 154.726H32.0821V159.786H28.4345V159.782ZM32.0821 152.366H33.611C33.7772 152.366 34.0971 152.308 34.5749 152.196C34.8158 152.146 35.0111 152.013 35.1648 151.805C35.3185 151.598 35.3933 151.357 35.3933 151.083C35.3933 150.68 35.2728 150.372 35.0319 150.156C34.7909 149.94 34.338 149.832 33.6775 149.832H32.0821V152.366Z" fill="black"/>
<path d="M48.3886 157.722H44.2674L43.694 159.778H39.984L44.4003 147.311H48.3637L52.7841 159.778H48.9786L48.3928 157.722H48.3886ZM47.6367 155.026L46.3405 150.543L45.0567 155.026H47.6367Z" fill="black"/>
<path d="M53.2993 155.658L56.7559 155.429C56.8306 156.023 56.9802 156.48 57.2129 156.792C57.5868 157.295 58.1227 157.548 58.8165 157.548C59.3358 157.548 59.7347 157.419 60.0172 157.162C60.2997 156.904 60.4368 156.605 60.4368 156.264C60.4368 155.94 60.3038 155.654 60.0338 155.396C59.7679 155.143 59.1447 154.902 58.1726 154.673C56.5814 154.291 55.443 153.788 54.7658 153.157C54.0803 152.529 53.7397 151.723 53.7397 150.751C53.7397 150.111 53.9142 149.505 54.2631 148.936C54.6121 148.366 55.1398 147.918 55.8419 147.594C56.544 147.266 57.5078 147.104 58.7334 147.104C60.2374 147.104 61.3798 147.398 62.1692 147.993C62.9586 148.587 63.428 149.526 63.5776 150.822L60.1543 151.034C60.0629 150.473 59.8718 150.066 59.5809 149.808C59.2901 149.551 58.8871 149.426 58.372 149.426C57.9524 149.426 57.6325 149.521 57.4164 149.708C57.2045 149.9 57.0965 150.132 57.0965 150.402C57.0965 150.602 57.1838 150.78 57.3624 150.938C57.5328 151.104 57.9399 151.254 58.5797 151.399C60.1667 151.761 61.3051 152.131 61.9906 152.5C62.6761 152.87 63.1788 153.331 63.4903 153.884C63.8019 154.432 63.9598 155.047 63.9598 155.728C63.9598 156.53 63.7521 157.265 63.3325 157.939C62.917 158.616 62.3312 159.127 61.5834 159.476C60.8356 159.825 59.8925 159.999 58.7542 159.999C56.7559 159.999 55.3682 159.592 54.5997 158.774C53.8311 157.955 53.3948 156.921 53.291 155.662L53.2993 155.658Z" fill="black"/>
<path d="M65.9374 147.314H69.5767V159.782H65.9374V147.314Z" fill="black"/>
<path d="M72.1858 147.314H75.8168V156.712H81.4877V159.782H72.1858V147.314Z" fill="black"/>
</svg>
