<svg width="22" height="22" viewBox="0 0 22 22" fill="none" xmlns="http://www.w3.org/2000/svg">
<path d="M22 10.7163C22 16.6332 17.1658 21.4326 11.2026 21.4326C9.30947 21.4326 7.53211 20.9463 5.98053 20.1011L0 22L1.95105 16.2511C0.966842 14.6358 0.399474 12.7426 0.399474 10.7163C0.399474 4.79947 5.23368 0 11.2026 0C17.1716 0 22 4.79947 22 10.7163ZM11.2026 1.70789C6.19474 1.70789 2.11895 5.74895 2.11895 10.7163C2.11895 12.6905 2.76158 14.5142 3.85 15.9963L2.71526 19.3426L6.20632 18.2311C7.64211 19.1747 9.35579 19.7189 11.2026 19.7189C16.2105 19.7189 20.2805 15.6779 20.2805 10.7105C20.2805 5.74316 16.2047 1.70789 11.2026 1.70789ZM16.6563 13.1884C16.5868 13.0784 16.4132 13.0147 16.1468 12.8816C15.8805 12.7484 14.5779 12.1174 14.3405 12.0247C14.0974 11.9379 13.9237 11.8916 13.7442 12.1579C13.5705 12.4184 13.0611 13.0147 12.9047 13.1884C12.7484 13.3621 12.5979 13.3853 12.3316 13.2521C12.0653 13.1189 11.2142 12.8411 10.2011 11.9495C9.41368 11.2547 8.88105 10.3921 8.73053 10.1316C8.57421 9.87105 8.71316 9.72632 8.84632 9.59316C8.96789 9.47737 9.11263 9.28632 9.24579 9.13579C9.37895 8.97947 9.42526 8.87526 9.5121 8.69579C9.59895 8.52211 9.55842 8.36579 9.48895 8.23263C9.42526 8.09947 8.89263 6.80842 8.67263 6.28158C8.45263 5.75474 8.23263 5.84158 8.07632 5.84158C7.92 5.84158 7.74632 5.81842 7.56684 5.81842C7.38737 5.81842 7.10368 5.88211 6.86053 6.14842C6.61737 6.40895 5.93421 7.04579 5.93421 8.33684C5.93421 9.62789 6.88368 10.8784 7.01684 11.0521C7.15 11.2258 8.84632 13.9642 11.5384 15.0179C14.2305 16.0716 14.2305 15.7184 14.7168 15.6721C15.2032 15.6258 16.28 15.0353 16.5058 14.4216C16.7258 13.8079 16.7258 13.2811 16.6621 13.1711L16.6563 13.1884Z" fill="#9C8034"/>
</svg>
