<svg width="87" height="160" viewBox="0 0 87 160" fill="none" xmlns="http://www.w3.org/2000/svg">
<path d="M4.58449 145.262H3.60822V144.021H6.28635L6.31274 152.128H7.04494V153.369H4.65045C4.65045 152.913 4.69663 152.551 4.78897 152.148H4.76259C4.3734 153.039 3.67419 153.527 2.59898 153.527C1.20054 153.527 0.00659638 152.524 0 150.624C0 148.883 0.824548 146.871 3.54226 146.865C3.8325 146.865 4.24807 146.911 4.59108 147.01V145.255L4.58449 145.262ZM4.53831 148.487C4.30744 148.369 3.8325 148.256 3.4565 148.256C2.22958 148.256 1.76783 149.239 1.77443 150.222C1.77443 151.218 2.25596 152.069 3.08051 152.069C3.97762 152.069 4.5515 151.258 4.54491 150.288V148.487H4.53831Z" fill="#005181"/>
<path d="M9.73627 150.561C9.78904 151.571 10.5674 152.191 11.7614 152.184C12.5793 152.184 13.1004 152.046 13.8194 151.742L13.7403 153.094C12.9487 153.391 12.2561 153.503 11.392 153.503C8.93151 153.51 7.89588 151.98 7.88928 150.218C7.88269 148.233 9.08323 146.854 11.0753 146.848C13.2653 146.841 14.1624 148.49 14.169 150.548L9.73627 150.561ZM12.3089 149.387C12.3089 148.51 11.8075 148.015 11.016 148.015C10.2376 148.015 9.78904 148.53 9.71648 149.394H12.3089V149.387Z" fill="#005181"/>
<path d="M26.0161 145.205L32.916 145.185V147.883H31.3262L31.346 153.312C29.3011 153.872 27.5465 154.149 25.4489 154.156C19.5979 154.176 16.082 150.713 16.0688 145.257C16.0556 140.403 19.0899 136.069 25.6665 136.049C28.5162 136.042 30.1719 136.61 31.5439 137.078L31.5571 141.953L28.404 141.966V139.09C27.5465 138.819 26.5966 138.747 25.9172 138.747C21.491 138.76 20.0002 141.814 20.0134 145.02C20.02 147.672 21.1876 151.313 25.937 151.3C26.689 151.3 27.1837 151.247 27.8367 151.141L27.8236 147.889H26.0227L26.0161 145.191V145.205Z" fill="#005181"/>
<path d="M42.5928 145.481C42.5928 143.509 41.7617 142.981 40.106 142.988C39.6047 142.988 38.5295 143.146 37.9292 143.37V145.118L34.9344 145.132L34.9212 141.807C35.7722 141.325 37.817 140.448 40.1456 140.442C43.6482 140.428 45.8778 141.649 45.891 145.448C45.8976 147.599 45.8251 149.399 45.7855 151.253H47.2631L47.2697 153.799L42.8699 153.812V153.014C42.8699 152.163 42.916 151.715 43.0348 151.213H42.982C42.1113 153.192 40.9173 154.122 38.7141 154.129C35.7656 154.136 34.3342 152.394 34.3276 150.343C34.321 148.469 35.5677 147.236 36.9397 146.734C38.2656 146.253 40.04 146.128 42.5928 146.114V145.488V145.481ZM41.577 148.258C38.7273 148.265 37.8302 148.872 37.8302 149.993C37.8302 150.771 38.3843 151.57 39.763 151.563C41.1614 151.563 42.5598 150.653 42.5532 148.252H41.577V148.258Z" fill="#005181"/>
<path d="M50.713 143.251H49.0111L49.0045 140.705L54.0837 140.685C54.0837 141.582 54.0375 142.459 53.866 143.686H53.9188C54.4399 141.483 55.6603 140.382 57.659 140.375C58.0877 140.375 58.4373 140.448 58.8133 140.52L58.5956 143.647C58.2196 143.574 57.8239 143.521 57.4677 143.528C55.5679 143.528 54.2222 144.841 54.2288 146.991L54.242 151.219H55.8911L55.8977 153.766L49.3211 153.785V151.233H50.7393L50.713 143.258V143.251Z" fill="#005181"/>
<path d="M67.514 143.047C67.0391 142.948 66.7356 142.902 66.3135 142.902C63.9849 142.909 63.0219 145.039 63.0285 146.84C63.0351 149.063 64.196 151.187 67.1908 151.174C68.3649 151.174 69.4401 150.917 70.4626 150.435L70.2713 153.384C69.2225 153.76 68.4507 153.938 67.1974 154.017V155.217C69.4533 155.211 69.8821 156.438 69.8821 157.335C69.8821 158.938 68.3385 159.987 66.0628 160C64.9612 160 64.0113 159.808 63.2857 159.63L63.3781 157.803C63.952 158.001 64.5786 158.153 65.2053 158.146C66.2541 158.146 66.8807 157.764 66.8807 157.19C66.8807 156.616 66.5245 156.319 64.9546 156.319V153.918C61.3926 153.331 59.5324 150.56 59.5258 147.209C59.5126 142.981 62.2039 140.349 66.3794 140.336C67.956 140.336 69.3082 140.58 70.5088 140.949L70.5219 144.775H67.5206V143.034L67.514 143.047Z" fill="#005181"/>
<path d="M80.5748 145.357C80.5748 143.385 79.7437 142.857 78.0946 142.863C77.5933 142.863 76.5181 143.022 75.9178 143.246V144.994L72.923 145.001L72.9098 141.676C73.7608 141.201 75.8057 140.317 78.1342 140.311C81.6369 140.297 83.8664 141.518 83.8796 145.317C83.8862 147.468 83.8203 149.269 83.7741 151.122H85.2517L85.2583 153.668L80.8585 153.682V152.883C80.8585 152.032 80.9047 151.584 81.0234 151.083H80.9706C80.0999 153.061 78.906 153.992 76.7028 153.998C73.7542 154.005 72.3228 152.263 72.3162 150.212C72.3162 148.338 73.5563 147.105 74.9283 146.604C76.2542 146.122 78.0286 145.997 80.5748 145.984V145.357ZM79.559 148.134C76.7094 148.141 75.8123 148.747 75.8123 149.869C75.8123 150.647 76.3664 151.445 77.745 151.439C79.1434 151.439 80.5419 150.528 80.5353 148.127H79.559V148.134Z" fill="#005181"/>
<path d="M2.45386 114.537H0.659642L0.653046 111.892L8.69404 111.865C10.8247 111.859 11.4777 112.011 12.5199 112.532C14.1624 113.33 14.9738 114.992 14.9804 116.839C14.987 119.544 12.731 121.476 10.7059 121.562V121.615C11.6162 121.687 12.1373 122.024 13.0542 123.534L14.7033 126.259C15.2508 127.195 15.6928 127.4 16.1875 127.4H16.867L16.8736 130.052H13.9579C12.9949 130.065 12.3154 129.728 10.9038 127.341L8.68084 123.548C8.31804 122.954 7.8431 122.637 7.17027 122.644H6.28636L6.29955 127.433H7.93545L7.94205 130.078L0.86413 130.098V127.446H2.49344L2.45386 114.544V114.537ZM6.26657 119.834H8.2191C10.2508 119.821 11.1809 118.937 11.1743 117.162C11.1743 115.395 10.2838 114.511 7.96843 114.517H6.25337L6.26657 119.834Z" fill="#005181"/>
<path d="M21.4184 124.05C21.5306 126.207 23.1995 127.532 25.7523 127.519C27.4937 127.519 28.6151 127.222 30.1455 126.569L29.9739 129.459C28.2853 130.092 26.8011 130.329 24.9541 130.336C19.6968 130.349 17.4738 127.084 17.4672 123.311C17.454 119.069 20.02 116.121 24.2879 116.107C28.9713 116.094 30.8777 119.623 30.8974 124.023L21.425 124.056L21.4184 124.05ZM26.9264 121.536C26.9198 119.663 25.8512 118.601 24.1559 118.607C22.4936 118.607 21.5306 119.709 21.3789 121.556L26.9198 121.536H26.9264Z" fill="#005181"/>
<path d="M46.4847 118.843H44.143C44.5586 119.371 45.0335 120.307 45.0401 121.475C45.0533 124.674 42.3488 126.165 39.3343 126.178H38.0348C37.5928 126.178 37.1509 126.495 37.1509 126.917C37.1509 127.385 37.4411 127.563 38.1139 127.643L42.6127 128.124C44.9544 128.375 46.2605 129.364 46.2671 131.699C46.2737 133.678 44.6971 136.805 39.1034 136.818C33.5888 136.838 32.23 134.866 32.2234 133.197C32.2234 132.023 32.7906 130.697 35.2049 130.116V130.063C34.0308 129.806 33.3579 129.285 33.3513 128.038C33.3513 126.686 34.6442 126.007 35.9701 125.769V125.716C33.3909 124.892 32.5532 123.203 32.5466 121.224C32.54 118.078 34.9213 116.066 38.6416 116.053C39.763 116.053 40.5678 116.204 41.5045 116.356L46.4715 116.336V118.836L46.4847 118.843ZM37.1641 130.789C36.4912 131.027 35.6601 131.6 35.6601 132.379C35.6601 133.652 37.1245 134.166 39.3343 134.16C40.9504 134.16 42.8435 133.527 42.8369 132.273C42.8369 131.442 42.2631 131.31 41.0361 131.185L37.1575 130.782L37.1641 130.789ZM38.8857 123.526C41.1483 123.52 41.9266 122.267 41.92 121.073C41.92 119.641 40.6403 118.711 38.9978 118.718C37.4147 118.718 35.9833 119.43 35.9899 121.224C35.9899 122.656 37.0651 123.54 38.8857 123.533" fill="#005181"/>
<path d="M49.4993 118.991H47.7314L47.7248 116.346L53.1339 116.326L53.1668 127.276H54.7302L54.7368 129.921L48.048 129.941V127.289H49.519L49.4927 118.991H49.4993ZM51.1615 109.545C52.6721 109.545 53.6088 110.449 53.6154 111.801C53.6154 113.153 52.6853 114.07 51.1747 114.07C49.6642 114.07 48.7275 113.166 48.7209 111.814C48.7209 110.462 49.651 109.552 51.1615 109.545Z" fill="#005181"/>
<path d="M65.3504 121.226C65.3438 119.174 64.4797 118.627 62.7646 118.633C62.2435 118.633 61.1287 118.792 60.502 119.029V120.85L57.3885 120.863L57.3754 117.4C58.2593 116.905 60.3899 115.981 62.8108 115.975C66.452 115.962 68.7739 117.228 68.7871 121.186C68.7937 123.422 68.7211 125.296 68.675 127.222H70.2119L70.2185 129.873L65.6406 129.887V129.056C65.6406 128.172 65.6868 127.703 65.8121 127.182H65.7594C64.8557 129.24 63.6089 130.21 61.32 130.216C58.2527 130.23 56.7619 128.409 56.7553 126.278C56.7553 124.326 58.0482 123.046 59.473 122.525C60.8517 122.024 62.6986 121.892 65.3504 121.879V121.226ZM58.0086 112.433C58.6551 110.817 59.9216 109.616 61.5904 109.609C63.2527 109.609 64.1432 110.955 65.2382 110.948C65.8649 110.948 66.1485 110.737 66.795 109.801L68.675 111.12C68.0021 112.393 66.861 113.6 65.324 113.6C63.919 113.6 62.6393 112.175 61.6498 112.182C61.1551 112.182 60.7131 112.525 60.225 113.488L58.0086 112.426V112.433ZM64.2884 124.121C61.32 124.128 60.3899 124.761 60.3899 125.929C60.3899 126.734 60.9704 127.565 62.4018 127.558C63.8596 127.558 65.3108 126.615 65.3042 124.115H64.2884V124.121Z" fill="#005181"/>
<path d="M79.0181 115.928C83.596 115.915 86.1818 118.428 86.195 123.164C86.2082 127.221 83.4113 130.143 79.0643 130.156C74.7173 130.169 71.9006 127.841 71.8874 123.21C71.8742 119.305 74.5721 115.941 79.0181 115.928ZM79.0577 127.194C81.2939 127.188 82.2503 125.704 82.2437 123.256C82.2305 120.341 81.2675 118.89 79.0313 118.896C76.7951 118.903 75.8386 120.803 75.8452 123.276C75.8518 125.723 76.8215 127.201 79.0577 127.194Z" fill="#005181"/>
<path d="M21.6428 5.08267C24.4132 9.7595 23.2655 15.5643 19.0768 18.0512C14.8881 20.538 9.24156 18.7636 6.46448 14.0933C3.694 9.41649 4.84177 3.61167 9.03048 1.12484C13.2192 -1.362 18.8657 0.412426 21.6428 5.08926" fill="#DC1743"/>
<path d="M71.5048 34.3112C69.2356 36.1911 66.7092 37.7677 64.262 39.298C59.4466 42.3192 53.2988 43.5791 45.9966 43.0448C45.7393 43.025 45.4755 42.9986 45.2182 42.9788L43.5097 43.7176C43.325 43.7968 43.1997 43.9683 43.1733 44.1793C43.1535 44.3179 43.1338 44.4498 43.1206 44.5883C43.9319 44.6609 44.7103 44.7202 45.4227 44.74C50.8977 44.8852 56.5178 44.7268 62.5865 44.2519C63.1538 44.2057 63.7277 44.1793 64.2818 44.153C66.1683 44.0672 67.9164 43.988 69.4401 43.2954C71.8544 42.2004 73.7805 41.112 75.3439 39.9577C76.3729 39.1991 77.3756 38.4075 78.3518 37.6423C80.2252 36.1647 82.1382 34.6608 84.1896 33.3811C84.6316 33.104 85.0867 32.8336 85.5551 32.5763C85.4957 30.8744 85.4034 29.4892 85.3242 28.5195C82.7055 28.6185 80.2054 29.3507 77.3492 30.4523C75.1658 31.2966 73.1407 32.9655 71.5114 34.3046" fill="#009C43"/>
<path d="M76.894 41.9916C75.2317 43.2185 73.1934 44.3729 70.667 45.5206C68.8134 46.3584 66.7883 46.4573 64.8358 46.5431C64.2817 46.5695 63.7078 46.5959 63.1603 46.6354C57.0191 47.117 51.333 47.2753 45.7723 47.1302C44.8224 47.1038 43.8131 47.018 42.7577 46.9191C40.858 57.1303 36.4054 61.1211 32.4212 62.5591C32.9621 63.5552 33.5228 64.5512 34.1428 65.4945C36.2207 68.641 38.4635 71.9392 41.0559 74.6239C43.7934 77.4603 46.5902 79.868 49.7037 82.4934C50.6404 83.2849 63.035 94.5384 64.2553 95.297C64.8688 95.6795 65.502 96.0555 66.1287 96.4183C67.6195 95.8774 67.725 93.318 67.7646 92.3748C67.7976 91.471 67.7316 90.5542 67.5733 89.6307C66.4453 88.7072 65.3503 87.7375 64.2685 86.7876L64.2158 86.7414C63.5759 86.1742 62.9097 85.5871 62.25 85.0264C61.6366 84.4987 61.0099 83.971 60.3833 83.4366L60.0336 83.1398C53.2526 77.368 46.2472 71.3983 41.2999 64.1027C39.5453 61.5103 39.011 59.3269 39.7168 57.6118C41.3659 53.6012 49.519 53.687 55.4689 53.7529C57.5798 53.7793 59.4004 53.7991 60.3635 53.6276C65.6208 52.7041 70.4427 50.6196 75.113 48.6143C75.7924 48.3175 76.4784 48.0273 77.1645 47.737C78.4112 47.2093 79.5589 46.774 80.6869 46.4178C82.1909 45.9362 83.6619 45.5932 85.1461 45.3623C85.5089 41.7277 85.621 38.3438 85.6078 35.4941C83.6487 36.7211 81.7819 38.1855 79.9811 39.6037C78.9719 40.4018 77.9362 41.2132 76.8874 41.985" fill="#005181"/>
<path d="M18.4567 56.9241C18.0873 55.9808 17.7113 55.0178 17.2957 54.0811C17.1836 53.837 17.078 53.5929 16.9725 53.3555C12.3484 57.0758 13.3841 62.6894 14.2614 65.506C16.1875 71.7462 23.4633 76.8254 26.8209 77.7951C29.0043 78.4283 31.1151 79.0814 33.1402 79.7542C29.3737 75.1763 25.6335 69.8728 21.9989 63.9097C20.9105 62.1221 19.1691 58.7381 18.4633 56.9241" fill="#009C43"/>
<path d="M26.933 52.9653C27.0847 53.5853 27.4013 54.2516 27.7905 54.9376C28.3182 54.4956 28.8987 54.0273 29.5518 53.5326C29.7958 53.3479 30.0267 53.1698 30.251 52.9851C33.6877 50.175 34.974 47.3385 35.3104 44.9902C33.2985 45.0364 31.4515 45.3662 30.1257 46.3227C27.4013 48.2884 26.3261 50.5246 26.933 52.9653Z" fill="#005181"/>
<path d="M71.518 33.0781L52.0916 41.4489C56.9202 41.2313 61.0759 40.0505 64.4862 37.9133C66.8741 36.4159 69.3477 34.8723 71.518 33.0781Z" fill="#009C43"/>
<path d="M48.6417 89.4948C48.622 89.2771 48.4834 89.066 48.2789 88.9539C45.9834 87.7204 43.457 86.533 40.7327 85.3984C42.5401 87.3312 44.3409 89.1386 46.1219 90.8141C46.9069 90.537 47.6589 90.2534 48.3647 89.9763C48.5494 89.9038 48.6615 89.7125 48.6417 89.4948Z" fill="#009C43"/>
<path d="M37.2563 93.164C39.7894 92.722 42.1773 92.102 44.3475 91.4159C42.0057 89.1732 38.7405 86.3499 36.379 83.6982C36.3592 83.6784 36.3922 83.718 36.379 83.6982C33.2062 82.5042 30.6468 81.6929 27.0056 80.6309C29.2879 83.3947 31.6494 86.4423 34.1626 89.8592C35.0334 91.04 36.0954 92.135 37.2563 93.164Z" fill="#009C43"/>
<path d="M22.4739 86.8197C22.8367 87.2023 23.1863 87.5651 23.5227 87.9279C24.8684 89.3791 26.2404 90.7974 27.5663 92.1694L27.7378 92.3475C28.2127 92.8422 28.6943 93.337 29.1692 93.8317C31.2141 93.8581 32.8698 93.7262 34.8091 93.4755C33.9516 92.6378 33.1534 91.7472 32.4542 90.7974C29.1956 86.3712 26.2074 82.5849 23.3116 79.2207C23.2325 79.2339 23.5029 79.2603 23.4369 79.3131C21.9857 80.5334 20.4158 81.6284 18.8854 82.5783C19.8353 84.0559 21.2206 85.5071 22.4673 86.8197" fill="#009C43"/>
<path d="M12.5266 85.9746C11.2733 86.5419 10.4751 86.8519 10.4487 86.8585C10.2706 86.9245 10.1651 87.096 10.1651 87.3005C10.1651 87.505 10.2772 87.7095 10.4553 87.8414C12.5991 89.3783 14.8881 90.6185 17.3089 91.5749C16.4118 90.6251 15.5213 89.6488 14.6638 88.6396C13.925 87.7688 13.2192 86.8783 12.5266 85.9746Z" fill="#009C43"/>
<path d="M20.6797 92.6831C21.5966 92.9272 22.5267 93.1382 23.4766 93.3097C24.5782 93.5076 24.9278 93.6396 26.0228 93.7253C25.9238 93.6264 25.8249 93.5208 25.7259 93.4219L25.627 93.3163C24.3671 92.0169 22.9422 90.5393 21.59 89.0815C21.2734 88.745 20.9435 88.3954 20.6071 88.0458C19.2879 86.6606 18.1269 85.2292 17.0583 83.5801C15.8248 84.2925 15.0662 84.7542 14.0503 85.2556C14.6572 86.0405 15.2773 86.8123 15.9171 87.5709C17.4277 89.3519 19.0702 91.0472 20.6731 92.6897" fill="#009C43"/>
<path d="M30.5347 33.4213C27.5267 30.3605 23.5953 30.1165 21.1216 30.3539C15.1123 29.2787 8.74682 28.1507 8.46977 28.2959C8.28507 28.3948 8.19932 28.3684 8.18612 28.5861C8.18612 28.5861 16.3063 30.9872 20.8644 33.3949C21.2008 33.573 24.1626 35.3342 25.3301 35.3936H25.4159C26.1679 35.4397 26.8803 35.4727 27.5663 35.4991C29.2418 35.5585 30.9305 35.7036 32.6059 35.8817C32.0386 34.9912 31.346 34.1469 30.5347 33.4213Z" fill="#DC1743"/>
<path d="M72.1644 104.67C71.7884 103.397 49.2288 84.9073 48.4307 84.2345C45.2512 81.5497 42.3884 79.0893 39.5519 76.1473C36.7814 73.2713 34.4463 69.8411 32.2893 66.5825C31.5439 65.4546 30.8909 64.2738 30.2642 63.1194C28.4238 63.4295 26.8407 63.2712 25.8842 63.0996C25.2576 62.9875 24.8816 62.8688 24.875 62.8688C24.8222 62.849 24.7694 62.8424 24.7167 62.8358C24.433 61.8859 23.7668 58.8318 26.1679 56.4241C25.528 55.3687 24.9673 54.2869 24.6903 53.1655C23.8459 49.7552 25.152 46.767 28.5821 44.2934C30.4093 42.9741 32.817 42.5981 35.3434 42.5981C35.2445 41.701 34.0308 38.9371 33.8329 38.383C31.8408 38.1521 29.8486 37.9542 27.8961 37.8883C27.1705 37.8619 26.4185 37.8223 25.6468 37.7893C25.528 37.7893 25.4027 37.7761 25.284 37.7695C25.9436 39.7353 25.9502 42.2419 25.1256 44.7683C24.1692 47.6839 21.4449 50.4874 18.7337 51.9781C18.9382 52.4465 19.1493 52.9214 19.3736 53.4162C19.8221 54.4122 20.2113 55.4149 20.5939 56.3911C21.2865 58.1721 22.9488 61.3582 23.8987 62.9215C28.2127 70.0061 32.6653 76.1407 37.1376 81.1671C41.5968 82.8096 43.5098 84.5775 47.0256 86.7279C51.907 91.2398 65.7264 100.534 70.1657 105.633C71.0826 106.959 71.4916 107.032 71.6895 107.071C71.9468 107.117 72.1776 107.038 72.3294 106.853C72.58 106.55 72.3491 105.27 72.171 104.677" fill="#DC1743"/>
<path d="M62.8504 71.3901L62.7976 71.311C61.8675 69.6487 61.63 68.2041 62.0786 66.9705C62.7052 65.2621 64.5984 64.1605 67.8702 63.5932C71.3267 62.9929 75.2186 61.9705 78.8268 60.7172C79.5986 60.4467 80.4297 60.0311 81.3004 59.5892L81.65 59.4111C81.9271 59.2726 82.2107 59.134 82.501 58.9955C83.4772 55.7699 84.1501 52.5838 84.5986 49.6484C84.691 49.0614 84.7701 48.4809 84.8493 47.9004C83.8071 48.1049 82.7648 48.3687 81.7094 48.7051C80.6342 49.0482 79.5392 49.4571 78.3518 49.9585C77.7516 50.2157 77.1579 50.4664 76.5642 50.7236L76.307 50.8358C71.5378 52.8873 66.6103 55.0113 61.1287 55.9744C59.9875 56.1789 58.0746 56.1525 55.8648 56.1327C50.7526 56.0799 43.048 55.9942 41.8739 58.8438C41.4847 59.7937 41.9068 61.1789 43.1206 62.9731C47.8304 69.9257 54.684 75.7569 61.3068 81.3968C62.0126 81.9971 62.7118 82.5908 63.3979 83.1844C64.5588 82.5314 67.0391 81.0274 69.8095 78.7847C67.0852 76.5551 64.6973 74.055 62.8372 71.3769" fill="#009C43"/>
<path d="M81.2015 62.4531C80.7661 62.6576 80.3308 62.8423 79.902 62.994C76.1948 64.2869 72.1974 65.3357 68.6354 65.9492C66.1486 66.378 64.638 67.1366 64.2686 68.1392C64.0641 68.6999 64.2026 69.4057 64.6974 70.2962C66.4916 72.8622 68.8267 75.2567 71.4916 77.3807C75.522 73.7857 79.7239 68.7263 81.2015 62.4531Z" fill="#009C43"/>
</svg>
